{
  "accessors": [
    {
      "bufferView": 2,
      "componentType": 5126,
      "count": 7832,
      "max": [
        17.444238662719727,
        1.2192374467849731,
        1.5963703393936157
      ],
      "min": [
        -17.444238662719727,
        -31.85689353942871,
        -9.581450462341309
      ],
      "type": "VEC3"
    },
    {
      "bufferView": 2,
      "byteOffset": 93984,
      "componentType": 5126,
      "count": 7832,
      "max": [
        0.9998621344566345,
        1.0,
        1.0
      ],
      "min": [
        -0.9998620748519897,
        -1.0,
        -1.0
      ],
      "type": "VEC3"
    },
    {
      "bufferView": 1,
      "componentType": 5126,
      "count": 7832,
      "max": [
        0.8750001192092896,
        1.0000001192092896
      ],
      "min": [
        0.125,
        0.0
      ],
      "type": "VEC2"
    },
    {
      "bufferView": 0,
      "componentType": 5125,
      "count": 41472,
      "type": "SCALAR"
    },
    {
      "bufferView": 2,
      "byteOffset": 187968,
      "componentType": 5126,
      "count": 326,
      "max": [
        15.027175903320313,
        9.026068710227264e-07,
        0.9226318001747131
      ],
      "min": [
        -15.027175903320313,
        4.7652676471443556e-08,
        -9.076790809631348
      ],
      "type": "VEC3"
    },
    {
      "bufferView": 2,
      "byteOffset": 191880,
      "componentType": 5126,
      "count": 326,
      "max": [
        2.4471196979902743e-07,
        1.0,
        9.409367862645013e-08
      ],
      "min": [
        -2.44711742425352e-07,
        1.0,
        -3.038080365058704e-07
      ],
      "type": "VEC3"
    },
    {
      "bufferView": 1,
      "byteOffset": 62656,
      "componentType": 5126,
      "count": 326,
      "max": [
        0.0,
        0.0
      ],
      "min": [
        0.0,
        0.0
      ],
      "type": "VEC2"
    },
    {
      "bufferView": 0,
      "byteOffset": 165888,
      "componentType": 5125,
      "count": 1296,
      "type": "SCALAR"
    }
  ],
  "asset": {
    "extras": {
      "author": "Combinators (https://sketchfab.com/combinators)",
      "license": "CC-BY-4.0 (http://creativecommons.org/licenses/by/4.0/)",
      "source": "https://sketchfab.com/3d-models/sun-glasses-fbx-346kb-e37f07298c6644b98a27dae73e86dc9a",
      "title": "Sun Glasses (FBX) 346KB"
    },
    "generator": "Sketchfab-16.72.0",
    "version": "2.0"
  },
  "bufferViews": [
    {
      "buffer": 0,
      "byteLength": 171072,
      "name": "floatBufferViews",
      "target": 34963
    },
    {
      "buffer": 0,
      "byteLength": 65264,
      "byteOffset": 171072,
      "byteStride": 8,
      "name": "floatBufferViews",
      "target": 34962
    },
    {
      "buffer": 0,
      "byteLength": 195792,
      "byteOffset": 236336,
      "byteStride": 12,
      "name": "floatBufferViews",
      "target": 34962
    }
  ],
  "buffers": [
    {
      "byteLength": 432128,
      "uri": "scene.bin"
    }
  ],
  "materials": [
    {
      "doubleSided": true,
      "name": "Material.001",
      "pbrMetallicRoughness": {
        "baseColorFactor": [
          0.0186625,
          0.0186625,
          0.0186625,
          1.0
        ],
        "metallicFactor": 0.0,
        "roughnessFactor": 0.995826938136991
      }
    },
    {
      "doubleSided": true,
      "name": "Material.002",
      "pbrMetallicRoughness": {
        "metallicFactor": 0.0,
        "roughnessFactor": 0.735424868893541
      }
    }
  ],
  "meshes": [
    {
      "name": "Cube_Material.001_0",
      "primitives": [
        {
          "attributes": {
            "NORMAL": 1,
            "POSITION": 0,
            "TEXCOORD_0": 2
          },
          "indices": 3,
          "material": 0,
          "mode": 4
        }
      ]
    },
    {
      "name": "Cube_Material.002_0",
      "primitives": [
        {
          "attributes": {
            "NORMAL": 5,
            "POSITION": 4,
            "TEXCOORD_0": 6
          },
          "indices": 7,
          "material": 1,
          "mode": 4
        }
      ]
    }
  ],
  "nodes": [
    {
      "children": [
        1
      ],
      "matrix": [
        1.0,
        0.0,
        0.0,
        0.0,
        0.0,
        2.220446049250313e-16,
        -1.0,
        0.0,
        0.0,
        1.0,
        2.220446049250313e-16,
        0.0,
        0.0,
        0.0,
        0.0,
        1.0
      ],
      "name": "Sketchfab_model"
    },
    {
      "children": [
        2
      ],
      "matrix": [
        0.009999999776482582,
        0.0,
        0.0,
        0.0,
        0.0,
        0.0,
        0.009999999776482582,
        0.0,
        0.0,
        -0.009999999776482582,
        0.0,
        0.0,
        0.0,
        0.0,
        0.0,
        1.0
      ],
      "name": "f4caad3f79bb4153b90f8b505c8e442d.fbx"
    },
    {
      "children": [
        3
      ],
      "name": "RootNode"
    },
    {
      "children": [
        4,
        5
      ],
      "matrix": [
        14.18956184387207,
        0.0,
        0.0,
        0.0,
        0.0,
        -2.3117730558760458e-06,
        -14.189561843871882,
        0.0,
        0.0,
        14.189561843871882,
        -2.3117730558760458e-06,
        0.0,
        0.0,
        60.03155517578125,
        0.0,
        1.0
      ],
      "name": "Cube"
    },
    {
      "mesh": 0,
      "name": "Cube_Material.001_0"
    },
    {
      "mesh": 1,
      "name": "Cube_Material.002_0"
    }
  ],
  "scene": 0,
  "scenes": [
    {
      "name": "Sketchfab_Scene",
      "nodes": [
        0
      ]
    }
  ]
}
