<?xml version="1.0" encoding="UTF-8"?>
<svg width="400" height="150" xmlns="http://www.w3.org/2000/svg">
  <!-- 貓眼眼鏡 -->
  <defs>
    <filter id="shadow" x="-20%" y="-20%" width="140%" height="140%">
      <feDropShadow dx="2" dy="2" stdDeviation="2" flood-color="#000000" flood-opacity="0.3"/>
    </filter>
  </defs>
  
  <!-- 左鏡片 (貓眼形狀) -->
  <path d="M 30 75 Q 60 45 120 50 Q 150 55 150 75 Q 150 95 120 100 Q 60 105 30 75 Z" 
        fill="rgba(240, 240, 240, 0.1)" 
        stroke="#FF1493" 
        stroke-width="3" 
        filter="url(#shadow)"/>
  
  <!-- 右鏡片 (貓眼形狀) -->
  <path d="M 250 75 Q 280 45 340 50 Q 370 55 370 75 Q 370 95 340 100 Q 280 105 250 75 Z" 
        fill="rgba(240, 240, 240, 0.1)" 
        stroke="#FF1493" 
        stroke-width="3" 
        filter="url(#shadow)"/>
  
  <!-- 鼻樑 -->
  <line x1="150" y1="75" x2="250" y2="75" 
        stroke="#FF1493" 
        stroke-width="3" 
        stroke-linecap="round"/>
  
  <!-- 左鏡腳 -->
  <line x1="30" y1="70" x2="10" y2="60" 
        stroke="#FF1493" 
        stroke-width="3" 
        stroke-linecap="round"/>
  
  <!-- 右鏡腳 -->
  <line x1="370" y1="70" x2="390" y2="60" 
        stroke="#FF1493" 
        stroke-width="3" 
        stroke-linecap="round"/>
  
  <!-- 裝飾鑽石 -->
  <circle cx="45" cy="60" r="2" fill="#FF1493"/>
  <circle cx="355" cy="60" r="2" fill="#FF1493"/>
</svg>